<?xml version="1.0" encoding="UTF-8"?>
<svg version="1.1" viewBox="0 0 1500 1500" xmlns="http://www.w3.org/2000/svg">
<rect width="1500" height="1500" fill="#fff"/>
<g transform="matrix(.66667 0 0 .66667 249.94 308.02)">
<svg width="1500" height="1327" data-background-color="#ffffff" viewBox="0 0 279 247" xmlns="http://www.w3.org/2000/svg" xmlns:xlink="http://www.w3.org/1999/xlink">
<g transform="translate(.016021 -.1)">
<svg width="278.97" height="247.2" viewBox="0 0 278.9679583005826 247.2">
<svg width="278.97" height="247.2" viewBox="0 0 395.52 350.4794765521134">
<g transform="translate(0 193.13)">
<svg width="395.52" height="157.34" viewBox="0 0 395.52 157.34451550481538">
<svg width="395.52" height="157.34" viewBox="0 0 395.52 157.34451550481538">
<svg width="395.52" height="86.943" viewBox="0 0 395.52 86.94330823415109">
<g>
<svg width="395.52" height="86.943" data-palette-color="#202046" viewBox="-0.1 -40.7 205.82999999999998 45.25">
<path class="wordmark-text-0" d="m45-33.95q0-1.75-1.6-3.3-2.3-2.2-6.35-2.2-3.55 0-7.85 1.55-2.25 0.8-3.9 2.2-2.55 2.2-2.55 4.4 0 2.95 3.75 5.3 1.4 0.85 5.63 2.77 4.22 1.93 6.17 3.13 2.95 1.8 4.08 3.85 1.12 2.05 1.12 3.8 0 2.5-1.65 5.1-2.9 4.65-8.5 8-6.45 3.9-15.55 3.9-8.75 0-13.9-4.45-4-3.4-4-8.75 0-3.4 2.48-7.5 2.47-4.1 6.07-5.8 0.75-0.3 1.13-0.2 0.37 0.1-0.63 0.95-2.15 1.7-3.45 3.75-2.8 4.4-2.8 9.55 0 3.4 1.9 5.95 3.4 4.55 11.8 5.15 0.95 0.1 2.83 0.1 1.87 0 5.1-0.67 3.22-0.68 6.22-2.23 6.45-3.4 8.35-8.8 0.6-1.6 0.6-3.1 0-3.4-3.05-6-1.65-1.3-6.72-3.48-5.08-2.17-6.83-3.32-3.85-2.6-3.85-6.15 0-3.1 3.45-6.05 4.95-4.2 14-4.2 4.25 0 6.93 1.27 2.67 1.28 3.27 3.83 0.1 0.5 0.1 1 0 1.95-1.8 3.5-1.25 1-3.35 1.6-0.9 0.25-1-0.2-0.1-0.65 1.25-0.8 2.4-0.3 2.95-2.4 0.15-0.55 0.15-1.05zm5.1 26.25q-0.7 1.7-0.7 3.8 0 1.4 0.62 2.22 0.63 0.83 1.78 0.83 4.55 0 8.25-8.55 0.35-0.8 0.85-0.7 0.2 0.05 0.2 0.25t-1.13 2.62q-1.12 2.43-2.27 3.93-2.55 3.5-6.3 3.5-2 0-3.4-1.3t-1.4-3.55 1.07-4.78q1.08-2.52 2.93-4.7 1.85-2.17 4.25-3.17 1.15-0.5 2.2-0.5t1.95 0.6q0.85 0.7 0.85 1.55 0 3-3.6 5.75-1.1 0.85-3.1 1.52-2 0.68-3.05 0.68zm8.4-8q0-1-0.8-1-1.4 0-4.25 3.45-1.7 2.1-3 4.7 0.85 0 2.47-0.6 1.63-0.6 2.83-1.6 2.75-2.35 2.75-4.95zm10.9 4.2q1.75-2.1 1.75-3.55t-1.2-1.45q-2.35 0-5.35 4.3-0.95 1.35-1.85 3.55t-0.9 3.98q0 1.77 0.72 2.87 0.73 1.1 2.25 1.1 1.53 0 2.83-0.73 1.3-0.72 2.47-2.3 1.18-1.57 1.78-2.62t1.65-3.15q0.35-0.7 0.6-0.58 0.25 0.13 0.25 0.35 0 0.23-0.68 1.65-0.67 1.43-1.35 2.68-0.67 1.25-1.92 2.8-2.25 2.8-6.15 2.8-2.8 0-4.03-1.38-1.22-1.37-1.22-3.17 0-2.2 1.07-4.8 1.08-2.6 2.48-4.5 2.9-3.95 6.7-3.95 1.85 0 2.67 0.87 0.83 0.88 0.83 2.03 0 1.7-1.4 2.9-0.7 0.65-1.18 0.65-0.47 0-0.82-0.35zm10.49-8.55q0 2.25-2.85 4.25 1 0.05 2.68 0.05 1.67 0 4.22-0.25 0.1 0.15 0.1 0.8t-0.6 1.92q-0.6 1.28-1.07 2.2-0.48 0.93-0.9 1.75-0.43 0.83-0.95 2.03-0.53 1.2-0.88 2.2-1.25 3.8 0.4 3.8 2.1 0 6.2-8.35 0.35-0.65 0.58-0.5 0.22 0.15 0.22 0.37 0 0.23-0.65 1.56-0.65 1.32-1.4 2.72t-2.35 3.25q-1.9 2.3-3.65 2.3-1.95 0-2.7-2.35-0.15-0.45-0.15-1.35t0.58-2.4q0.57-1.5 1.82-3.65t1.4-2.53q0.15-0.37 0.15-0.72 0-1.55-4-1.65l-0.6 1.6q-3.15 8.25-6.05 11.05-0.5 0.45-0.5-0.3 0-0.15 0.1-0.35 2.8-3.7 4.85-8.75t2.85-9.6q0.3-1.55 1.4-1.55t1.6 1.4q0.15 0.45 0.15 1.05zm8.5 12.35q-0.7 1.7-0.7 3.8 0 1.4 0.63 2.22 0.62 0.83 1.77 0.83 4.55 0 8.25-8.55 0.35-0.8 0.85-0.7 0.2 0.05 0.2 0.25t-1.12 2.62q-1.13 2.43-2.28 3.93-2.55 3.5-6.3 3.5-2 0-3.4-1.3t-1.4-3.55 1.08-4.78q1.07-2.52 2.92-4.7 1.85-2.17 4.25-3.17 1.15-0.5 2.2-0.5t1.95 0.6q0.85 0.7 0.85 1.55 0 3-3.6 5.75-1.1 0.85-3.1 1.52-2 0.68-3.05 0.68zm8.4-8q0-1-0.8-1-1.4 0-4.25 3.45-1.7 2.1-3 4.7 0.85 0 2.48-0.6 1.62-0.6 2.82-1.6 2.75-2.35 2.75-4.95zm0.45 11.7q0-4.15 4-13.9h-2.6q-0.25 0-0.33-0.28-0.07-0.27 0.05-0.55 0.13-0.27 0.38-0.27h3q1.8-3.95 3.35-6.6t2.85-3.58q1.3-0.92 1.87-0.92 0.58 0 0.83 0.1 1.15 0.55 1.15 2.27 0 1.73-1.15 4.18t-2.25 4.55h2.4q0.25 0 0.32 0.27 0.08 0.28-0.05 0.55-0.12 0.28-0.37 0.28h-2.9q-2.75 4.65-6.65 8.25l-1.15 5.1q-0.15 0.65-0.15 1.27 0 0.63 0.35 1.28t1.1 0.65q0.85 0 1.9-0.6 2.4-1.8 5.3-7.55 0.2-0.45 0.47-0.55 0.28-0.1 0.33 0.12 0.05 0.23-0.15 0.73-1.65 3.45-2.6 4.9-2.7 4.35-5.75 4.35-1.55 0-2.55-1.15t-1-2.9zm7.55-15h2.5q3.3-5.9 3.3-8.2 0-1-0.35-1-0.55 0-1.68 1.6-1.12 1.6-3.77 7.6zm1.85 1.1h-2.35q-0.6 1.4-2.7 6.65 2.7-2.8 5.05-6.65zm60.14-17.35q5.3 3.15 5.3 7.6 0 3.5-3.9 7.5-2.25 2.35-5.32 4.05-3.08 1.7-6.08 2.45-5.2 1.25-9.4 1.25-0.9 0-1.8-0.05-3.65 5.35-7.5 9.1-5.65 5.3-12.45 5.3-6.5 0-8-3.55-0.35-0.85-0.35-1.98 0-1.12 1.15-2.42 1.8-2.05 5.05-2.05 2.1 0 4.4 0.75 0.85 0.3 0.6 0.65-0.2 0.2-1.3-0.2t-2.72-0.4q-1.63 0-2.85 1.22-1.23 1.23-1.23 2.63 0 0.55 0.2 1.1 0.8 2.7 4.55 2.7 5.6 0 11-5.2 3.85-3.75 8.65-13.5 1.85-3.65 4.6-8.13 2.75-4.47 5.6-7.67 0.35-0.35 0.9-0.9 1.05-1.2 1.75-1.9-3.6-0.5-7.7-0.5t-7.75 0.67q-3.65 0.68-6.35 1.6-2.7 0.93-5.47 2.4-2.78 1.48-4.68 3.73-2.5 2.85-2.5 5.95 0 1.9 1.35 3.55 1.45 1.75 3.73 1.75 2.27 0 4.4-1.75 2.12-1.75 3.02-4.3 0.05-0.35 0.23-0.48 0.17-0.12 0.32 0.03t0.15 0.5q-0.05 3.25-2.52 5.12-2.48 1.88-5.48 1.88-3.4 0-5.55-2t-2.15-5.15q0-2.9 1.55-5.23 1.55-2.32 3.7-3.77t4.95-2.6q4.75-1.9 9.98-2.68 5.22-0.77 9.75-0.77 4.52 0 8.37 0.8 1.8-1.4 3.15-1.9t1.53-0.5q0.17 0 0.22 0.05 0.3 0 0.13 0.32-0.18 0.33-1.15 0.98-0.98 0.65-1.88 1.55 3.2 0.85 5.8 2.4zm-19.8 21.75q3.65 0 7.93-1.28 4.27-1.27 7.57-3.72 6.4-4.85 6.4-10 0-5.85-8.85-7.95-2.8 3.9-7.25 11.85t-6.5 11.1q0.35 0 0.7 0zm25-4q3.65 0 3.65 4.6 0 2.1-1.1 4.5-1.4 3.25-4.2 5.9 0.65 1.25 2.35 1.25 1.35 0 2.55-1.35 1.5-1.55 2.15-2.73 0.65-1.17 0.95-1.72t0.78-1.58q0.47-1.02 0.57-1.25 0.1-0.22 0.35-0.22 0.5-0.05 0.5 0.35 0 0.15-0.1 0.35l-0.3 0.7q-0.3 0.7-0.45 1t-0.52 1.07q-0.38 0.78-0.65 1.23-0.28 0.45-0.75 1.2-0.48 0.75-0.85 1.2-0.38 0.45-0.93 1t-1.05 0.85q-1.25 0.75-2.35 0.75-2.05 0-3.2-1.3-2.3 1.7-4.25 1.7-3.65 0-3.65-4.6 0-2.1 1.1-4.5 1.5-3.5 4.23-5.95 2.72-2.45 5.17-2.45zm0.55 1.55q-1.35 0-3.2 1.8t-3.3 4.9q-1.75 3.6-1.75 5.9t1.75 2.3q1.25 0 2.8-1.35-0.8-1.15-0.8-2.45 0.1-2.15 1.75-2.15 0.65 0 1.08 0.45 0.42 0.45 0.42 0.82 0 0.38-0.1 0.78 0.85-1.25 1.95-3.55 1.25-2.55 1.25-5t-1.85-2.45zm11.35 15q0.65 0.1 0.9 0.1 2 0 3.95-2.35 1.05-1.3 3.75-6.55 0.1-0.25 0.35-0.25 0.45-0.05 0.45 0.35 0 0.1-0.23 0.57-0.22 0.48-0.42 0.95-0.2 0.48-0.65 1.38t-0.78 1.45q-0.32 0.55-0.82 1.35t-1 1.25l-1.05 1.1q-0.85 0.85-2 1.2-1.85 0.6-3.6 0.1-1.15 0.5-2.05 0.5-3.55 0-4.3-2.8-0.15-0.65-0.15-1.57 0-0.93 0.62-1.78 0.63-0.85 1.33-0.9 2.55-4.85 4.35-8.75 2-4.25 4.65-4.25 0.7 0 1.37 0.32 0.68 0.33 0.5 0.73-0.17 0.4-0.72 0.15t-0.95-0.25-0.7 0.15q-1.7 0.8-1.7 3.45 0 1.4 0.4 2.3t0.9 1.95q1.15 2.6 1.15 4.25t-1.05 3.25-2.5 2.6zm-1.7-0.35q2.2-1.7 2.2-5.5 0-1.55-0.35-4.25t-0.35-3.65 0.05-1.3q-3.8 7.6-4.7 9.25 1.05 0 1.05 1.5 0 2.95 2.1 3.95zm-3.75-1.35q0 0.3 0.05 0.65 0.4 1.35 1.85 1.35 0.6 0 1-0.2-1.85-1.15-2-3.75-0.9 0.9-0.9 1.95zm12.75-1.35q0-4.15 4-13.9h-2.6q-0.25 0-0.33-0.28-0.07-0.27 0.05-0.55 0.13-0.27 0.38-0.27h3q1.8-3.95 3.35-6.6t2.85-3.58q1.3-0.92 1.87-0.92 0.58 0 0.83 0.1 1.15 0.55 1.15 2.27 0 1.73-1.15 4.18t-2.25 4.55h2.4q0.25 0 0.32 0.27 0.08 0.28-0.05 0.55-0.12 0.28-0.37 0.28h-2.9q-2.75 4.65-6.65 8.25l-1.15 5.1q-0.15 0.65-0.15 1.27 0 0.63 0.35 1.28t1.1 0.65q0.85 0 1.9-0.6 2.4-1.8 5.3-7.55 0.2-0.45 0.47-0.55 0.28-0.1 0.33 0.12 0.05 0.23-0.15 0.73-1.65 3.45-2.6 4.9-2.7 4.35-5.75 4.35-1.55 0-2.55-1.15t-1-2.9zm7.55-15h2.5q3.3-5.9 3.3-8.2 0-1-0.35-1-0.55 0-1.68 1.6-1.12 1.6-3.77 7.6zm1.85 1.1h-2.35q-0.6 1.4-2.7 6.65 2.7-2.8 5.05-6.65z" fill="#202046" data-fill-palette-color="primary"/>
</svg>
</g>
</svg>
<g transform="translate(0 107.47)">
<svg width="395.52" height="49.876" viewBox="0 0 395.52 49.875978835978835">
<g>
<svg width="395.52" height="49.876" data-palette-color="#3886ce" viewBox="3 -35.35 283.48 35.75">
<path class="slogan-text-1" d="m14.6-0.05q-3.65 0-6.25-1.48-2.6-1.47-3.93-3.95-1.32-2.47-1.32-5.37 0-0.9 0.43-1.4 0.42-0.5 1.47-0.5 1.95 0 1.95 1.65 0 2.35 1.05 4.05t2.8 2.6 3.8 0.9q3 0 4.93-1.4 1.92-1.4 1.92-4.05 0-1.95-1.05-3.23-1.05-1.27-2.75-2.05-1.7-0.77-4.35-1.57-2.85-0.8-4.85-1.68-2-0.87-3.72-2.82-1.73-1.95-1.73-5.15 0-2.85 1.5-5.1t4-3.5 5.5-1.25q3.1 0 5.63 1.35 2.52 1.35 3.95 3.55 1.42 2.2 1.42 4.65 0 1.1-0.42 1.55-0.43 0.45-1.43 0.45-1.15 0-1.55-0.45t-0.4-1.25q0-2.65-2-4.5t-5.2-1.85-5.17 1.82q-1.98 1.83-1.98 4.58 0 1.85 1.08 3.02 1.07 1.18 2.7 1.83 1.62 0.65 4.62 1.55 2.55 0.8 4.63 1.77 2.07 0.98 3.72 3.03t1.65 5.2q0 2.7-1.37 4.75-1.38 2.05-3.8 3.15-2.43 1.1-5.48 1.1zm29.55 0.25q-4.1 0-7.08-1.78-2.97-1.77-4.5-4.7-1.52-2.92-1.52-6.37 0-3.55 1.6-6.53 1.6-2.97 4.55-4.72t6.8-1.75q3.4 0 6.1 1.37 2.7 1.38 4.2 3.83t1.5 5.6q0 1.5-0.35 2.12-0.35 0.63-1.75 0.68l-19.05 0.4q0 1.9 1.15 3.9t3.27 3.35q2.13 1.35 4.93 1.35 2.1 0 3.6-0.63 1.5-0.62 2.35-1.42t2.05-2.25q0.35-0.45 1.1-0.45 0.65 0 1.22 0.5 0.58 0.5 0.58 1.15 0 0.5-0.4 1.05-1.6 2.2-3.88 3.75-2.27 1.55-6.47 1.55zm-9.5-14.85 17.4-0.45q0.5 0 0.5-0.7 0-3-2.4-4.88-2.4-1.87-6.05-1.87-2.75 0-4.9 1.4t-3.35 3.3-1.2 3.2zm39.65 14.6q-4 0-6.83-1.63-2.82-1.62-4.25-4.35-1.42-2.72-1.42-6.07 0-3.55 1.5-6.65t4.37-5q2.88-1.9 6.83-1.9 4.3 0 7.02 2.05 2.73 2.05 3.93 4.95 0.2 0.4 0.2 0.85 0 0.55-0.48 0.95-0.47 0.4-1.33 0.4-0.59 0-1-0.33-0.39-0.32-0.75-1.02-0.75-1.95-2.67-3.33-1.92-1.37-4.67-1.37t-4.85 1.45-3.2 3.82q-1.11 2.38-1.11 5.03 0 3.9 2.31 6.45 2.3 2.55 6.5 2.55 2.69 0 4.57-1.05 1.87-1.05 2.85-2.63 0.98-1.57 1.08-3.17 0-0.55 0.37-0.88 0.38-0.32 1.13-0.32 1.9 0 1.9 1.65 0 2.2-1.4 4.4t-4.13 3.67q-2.72 1.48-6.47 1.48zm29.49-25.65q3.2 0 5 2.02 1.8 2.03 1.8 4.93 0 2.75-1.65 4.32-1.65 1.58-4.25 1.58-1 0-1.42-0.3-0.43-0.3-0.43-1.1 0-1.3 1.25-1.35 3.25-0.3 3.25-3.2 0-1.55-0.85-2.65t-2.75-1.1q-2 0-3.47 1.7-1.48 1.7-2.33 4.22-0.85 2.53-1 4.98-0.3 4.6-0.3 8.7 0 2.05-0.37 2.7-0.38 0.65-1.48 0.65t-1.52-0.53q-0.43-0.52-0.43-1.82l-0.05-9.55q0-3.3-0.5-8.7-0.3-3.15-0.35-4.5-0.05-0.8 0.45-1.23 0.5-0.42 1.4-0.42 1.55 0 1.65 1.5 0.3 3.15 0.35 6.15 0.85-3.3 2.95-5.15t5.05-1.85zm25.8 25.9q-4.1 0-7.07-1.78-2.98-1.77-4.5-4.7-1.53-2.92-1.53-6.37 0-3.55 1.6-6.53 1.6-2.97 4.55-4.72t6.8-1.75q3.4 0 6.1 1.37 2.7 1.38 4.2 3.83t1.5 5.6q0 1.5-0.35 2.12-0.35 0.63-1.75 0.68l-19.05 0.4q0 1.9 1.15 3.9t3.28 3.35q2.12 1.35 4.92 1.35 2.1 0 3.6-0.63 1.5-0.62 2.35-1.42t2.05-2.25q0.35-0.45 1.1-0.45 0.65 0 1.23 0.5 0.57 0.5 0.57 1.15 0 0.5-0.4 1.05-1.6 2.2-3.88 3.75-2.27 1.55-6.47 1.55zm-9.5-14.85 17.4-0.45q0.5 0 0.5-0.7 0-3-2.4-4.88-2.4-1.87-6.05-1.87-2.75 0-4.9 1.4t-3.35 3.3-1.2 3.2zm42.25 6.5q0.9 0 1.27 0.42 0.38 0.43 0.38 1.53 0 2.6-1.73 4.4-1.72 1.8-4.42 1.8-3.75 0-5.38-3.3-1.62-3.3-1.62-10.25 0-2.6 0.25-5.95-0.55-0.05-3.1-0.25-1.5-0.15-1.5-1.65t1.45-1.5q0.4 0 1.7 0.1 1.1 0.1 1.7 0.1 0.35-3.7 1.2-9.3 0.1-0.75 0.52-1.13 0.43-0.37 1.38-0.37t1.5 0.5 0.45 1.25l-0.25 1.65q-0.75 5.8-0.95 7.6l4 0.1q0.75 0 1.12 0.3 0.38 0.3 0.38 1.05 0 0.95-0.38 1.27-0.37 0.33-1.42 0.38-1.55 0.05-4 0.05-0.25 3.15-0.25 5.8 0 4.85 0.77 7.6 0.78 2.75 2.83 2.75 1.1 0 1.75-0.85t0.75-2.55q0.05-0.8 0.32-1.18 0.28-0.37 1.28-0.37zm35.14-27.1q3.75 0 6.98 1.42 3.22 1.43 5.17 4.05 1.95 2.63 1.95 6.08 0 3.15-1.7 5.57-1.7 2.43-4.67 3.73-2.98 1.3-6.78 1.3-4.3 0-7.25-1.55l-0.15 13.1q0 0.9-0.52 1.4-0.53 0.5-1.43 0.5-0.95 0-1.47-0.5-0.53-0.5-0.53-1.35 0-2.3 0.1-6.8 0.1-4.8 0.1-7.6 0-5.15-0.2-11.15-0.05-0.35-0.05-1.05l-0.15 0.1q-0.5 0.25-0.85 0.25-0.7 0-1.12-0.68-0.43-0.67-0.43-1.57 0-0.6 0.4-0.98 0.4-0.37 1.2-0.77l0.85-0.5v-0.8q0-1.15 0.5-1.7t1.55-0.55q0.9 0 1.4 0.3t0.5 0.8v0.1q3.2-1.15 6.6-1.15zm0.25 18.85q2.85 0 5.03-0.95 2.17-0.95 3.37-2.65t1.2-3.85q0-2.3-1.35-4.1t-3.57-2.8q-2.23-1-4.88-1-2.75 0-6.6 1.75 0.1 3.5 0.1 4.6t0.1 3.5q0.1 2.95 0.05 3.9 2.8 1.6 6.55 1.6zm30.25 16.45q-5.65 0-9.37-3-3.73-3-3.73-9.4 0-4 1.53-7.03 1.52-3.02 4.42-4.72t6.85-1.7q3.8 0 6.83 1.57 3.02 1.58 4.75 4.6 1.72 3.03 1.72 7.23 0 6.1-3.57 9.27-3.58 3.18-9.43 3.18zm-0.1-3.15q4 0 6.63-2.38 2.62-2.37 2.62-6.97 0-3-1.17-5.33-1.18-2.32-3.3-3.6-2.13-1.27-4.88-1.27-4.1 0-6.57 2.8-2.48 2.8-2.48 7.4 0 4.85 2.65 7.1t6.5 2.25zm27.1 3.35q-3.4 0-5.8-1.68-2.4-1.67-3.75-4.27-0.35-0.7-0.35-0.95 0-0.7 0.62-1.23 0.63-0.52 1.38-0.52 0.5 0 0.77 0.27 0.28 0.28 0.78 0.98 1.25 1.9 2.65 3.02 1.4 1.13 3.7 1.13 2.15 0 3.57-1.05 1.43-1.05 1.43-2.65 0-1.15-0.78-1.95-0.77-0.8-1.9-1.3-1.12-0.5-3.22-1.25-2.65-0.95-4.28-1.73-1.62-0.77-2.77-2.2-1.15-1.42-1.15-3.62 0-1.95 1.07-3.63 1.08-1.67 3.08-2.67t4.6-1 4.6 1 3.1 2.65 1.1 3.65q0 1-0.38 1.45-0.37 0.45-1.32 0.45-1 0-1.33-0.38-0.32-0.37-0.37-0.97-0.2-2.35-1.65-3.48-1.45-1.12-3.75-1.12-2.7 0-3.83 1.27-1.12 1.28-1.12 2.73 0 1.7 1.47 2.62 1.48 0.93 4.58 2.03 2.65 0.95 4.25 1.75t2.72 2.2q1.13 1.4 1.13 3.5 0 3.25-2.55 5.1t-6.3 1.85zm29.85-8.4q0.9 0 1.27 0.42 0.38 0.43 0.38 1.53 0 2.6-1.73 4.4-1.72 1.8-4.42 1.8-3.75 0-5.38-3.3-1.62-3.3-1.62-10.25 0-2.6 0.25-5.95-0.55-0.05-3.1-0.25-1.5-0.15-1.5-1.65t1.45-1.5q0.4 0 1.7 0.1 1.1 0.1 1.7 0.1 0.35-3.7 1.2-9.3 0.1-0.75 0.52-1.13 0.43-0.37 1.38-0.37t1.5 0.5 0.45 1.25l-0.25 1.65q-0.75 5.8-0.95 7.6l4 0.1q0.75 0 1.12 0.3 0.38 0.3 0.38 1.05 0 0.95-0.38 1.27-0.37 0.33-1.42 0.38-1.55 0.05-4 0.05-0.25 3.15-0.25 5.8 0 4.85 0.77 7.6 0.78 2.75 2.83 2.75 1.1 0 1.75-0.85t0.75-2.55q0.05-0.8 0.32-1.18 0.28-0.37 1.28-0.37z" fill="#3886ce" data-fill-palette-color="secondary"/>
</svg>
</g>
</svg>
</g>
</svg>
</svg>
</g>
<g transform="translate(75.544)">
<svg width="244.43" height="172.61" viewBox="0 0 244.43135999999998 172.6097326126126">
<svg class="icon-icon-0" x="8" width="228.43" height="172.61" enable-background="new 0 0 100 100" fill="#fe633d" data-fill-palette-color="accent" version="1.1" viewBox="5.4 17 88.8 67.1" xml:space="preserve" xmlns="http://www.w3.org/2000/svg" xmlns:xlink="http://www.w3.org/1999/xlink"><g data-fill-palette-color="accent"><path d="M80.9 26.6C72.6 20.4 61.5 17 49.8 17S27 20.4 18.6 26.6C10.1 33 5.4 41.5 5.4 50.5c0 6.7 2.6 13.2 7.5 18.7-1.1 2.3-2.9 4.2-4.9 5-1.5 0.6-2.4 1.7-2.5 3C5.4 78.6 6.1 80 7.6 81c3.1 2 9.8 2.7 18.6-2 7.1 3.3 15.2 5.1 23.6 5.1 11.8 0 22.8-3.4 31.2-9.6 8.5-6.3 13.2-14.8 13.2-23.9S89.5 33 80.9 26.6zM49.8 80c-8.2 0-16-1.8-22.7-5.1l-1-0.5-0.9 0.5c-8 4.5-13.3 3.7-15.1 2.8 3.2-1.5 5.8-4.6 7.1-8.2l0.4-1.2-0.9-0.9c-4.8-5-7.3-10.8-7.3-16.9C9.4 34.2 27.5 21 49.7 21S90 34.2 90 50.5C90.1 66.8 72 80 49.8 80z" fill="#fe633d" data-fill-palette-color="accent"/></g><path d="m61.2 46.2v-5.2c0-6.2-5-11.2-11.2-11.2s-11.2 5-11.2 11.2v5.2c-1.8 0.6-3.2 2.3-3.2 4.3v13.3c0 2.5 2 4.5 4.5 4.5h19.7c2.5 0 4.5-2 4.5-4.5v-13.3c0-2-1.3-3.7-3.1-4.3zm-6.6 16.4c-0.1 0.2-0.3 0.3-0.5 0.3l-8.2 0.1c-0.2 0-0.4-0.1-0.5-0.3s-0.1-0.4 0-0.6l2.5-5.5c-0.7-0.6-1.1-1.5-1.1-2.5 0-1.9 1.5-3.4 3.4-3.4s3.4 1.5 3.4 3.4c0 1-0.4 1.8-1.1 2.5l2.3 5.4c0 0.2-0.1 0.4-0.2 0.6zm2.1-16.6h-13.4v-5c0-3.7 3-6.7 6.7-6.7s6.7 3 6.7 6.7v5z" data-fill-palette-color="accent"/></svg>
</svg>
</g>
<g fill="#fe633d">
<rect x="319.98" y="163.77" width="17.268" height="7.8406" data-fill-palette-color="accent"/>
<rect x="58.276" y="163.77" width="17.268" height="7.8406" data-fill-palette-color="accent"/>
<rect x="319.98" y="148.09" width="17.268" height="7.8406" data-fill-palette-color="accent"/>
<rect x="58.276" y="148.09" width="17.268" height="7.8406" data-fill-palette-color="accent"/>
</g>
</svg>
</svg>
<rect width="278.97" height="247.2" fill="none" visibility="hidden"/>
</g>
</svg>
</g>
</svg>
